<?xml version="1.0" standalone="no"?>
<!DOCTYPE svg PUBLIC "-//W3C//DTD SVG 20010904//EN"
 "http://www.w3.org/TR/2001/REC-SVG-20010904/DTD/svg10.dtd">
<svg version="1.0" xmlns="http://www.w3.org/2000/svg"
 width="600.000000pt" height="600.000000pt" viewBox="0 0 600.000000 600.000000"
 preserveAspectRatio="xMidYMid meet">
<metadata>
Created by potrace 1.14, written by Peter Selinger 2001-2017
</metadata>
<g transform="translate(0.000000,600.000000) scale(0.100000,-0.100000)"
fill="#000000" stroke="none">
<path d="M2785 5953 c-174 -10 -512 -77 -699 -138 -770 -251 -1415 -818 -1759
-1545 -87 -185 -190 -481 -212 -610 -3 -19 -10 -54 -16 -78 -5 -23 -12 -59
-15 -80 -3 -20 -7 -44 -9 -52 -4 -14 -8 -47 -25 -210 -16 -157 -2 -542 25
-690 3 -14 10 -54 15 -88 41 -248 156 -582 287 -832 140 -266 313 -502 532
-721 374 -373 810 -627 1311 -763 86 -23 214 -53 265 -61 191 -31 303 -40 510
-40 159 0 347 10 377 19 7 3 37 7 67 11 164 17 475 102 666 180 22 9 49 20 60
24 28 11 286 139 310 154 11 7 76 48 145 93 434 281 799 691 1030 1158 94 190
198 474 224 611 2 11 9 38 15 60 9 35 24 122 37 210 3 17 6 39 9 50 31 149 25
646 -10 835 -3 14 -9 52 -15 85 -28 172 -110 447 -182 615 -86 199 -277 528
-380 653 -146 178 -314 356 -420 444 -387 321 -778 520 -1233 627 -267 63
-386 78 -655 80 -113 1 -227 0 -255 -1z"/>
</g>
</svg>
